<svg xmlns="http://www.w3.org/2000/svg" xmlns:xlink="http://www.w3.org/1999/xlink" viewBox="0 0 155.37 248.59"><defs><style>.cls-1{isolation:isolate;}.cls-2{fill:url(#未命名漸層_38);}.cls-3,.cls-4{fill:#d02826;}.cls-4{mix-blend-mode:multiply;}</style><linearGradient id="未命名漸層_38" x1="77.68" y1="-0.57" x2="77.68" y2="150.83" gradientUnits="userSpaceOnUse"><stop offset="0" stop-color="#dbdcdc"/><stop offset="1" stop-color="#656464"/></linearGradient></defs><g class="cls-1"><g id="圖層_2" data-name="圖層 2"><g id="圖層_1-2" data-name="圖層 1"><path class="cls-2" d="M77.68,0a77.69,77.69,0,0,0,0,155.37,19.42,19.42,0,0,0,0-38.84,38.85,38.85,0,1,1,38.85-38.85,19.42,19.42,0,0,0,38.84,0A77.68,77.68,0,0,0,77.68,0Z"/><path class="cls-3" d="M77.68,93.22h0a19.42,19.42,0,0,0,0,38.84A38.85,38.85,0,1,1,38.84,170.9,19.42,19.42,0,0,0,0,170.9H0A77.69,77.69,0,1,0,77.68,93.22Z"/><path class="cls-4" d="M77.68,116.53a38.57,38.57,0,0,1-19.35-5.18c0,.43-.07.86-.07,1.29a19.42,19.42,0,0,0,19.42,19.42A38.7,38.7,0,0,1,97,137.23c0-.42.06-.85.06-1.28A19.41,19.41,0,0,0,77.68,116.53Z"/></g></g></g></svg>